FILE "Die Schatzinsel unser längstes Hörbuch.mp3" MP3
  TRACK 01 AUDIO
    TITLE "Kapitel 1"
    INDEX 01 00:00:00
  TRACK 02 AUDIO
    TITLE "Kapitel 2"
    INDEX 01 72:40:00
  TRACK 03 AUDIO
    TITLE "Kapitel 3"
    INDEX 01 140:11:00
  TRACK 04 AUDIO
    TITLE "Kapitel 4"
    INDEX 01 204:37:00
  TRACK 05 AUDIO
    TITLE "Kapitel 5"
    INDEX 01 279:52:00
